<svg width="25" height="25" viewBox="0 0 25 25" fill="none" xmlns="http://www.w3.org/2000/svg">
<path fill-rule="evenodd" clip-rule="evenodd" d="M2.94532 0.797141C3.21871 0.524155 3.54701 0.312388 3.90844 0.175875C4.26987 0.0393625 4.65618 -0.0187797 5.04178 0.0053019C5.42738 0.0293835 5.80346 0.135139 6.1451 0.31556C6.48674 0.495981 6.78613 0.746948 7.02344 1.05183L9.82813 4.65495C10.3422 5.31589 10.5234 6.17683 10.3203 6.98933L9.46563 10.4112C9.42175 10.5885 9.42429 10.774 9.47301 10.95C9.52172 11.126 9.61497 11.2864 9.74375 11.4159L13.5828 15.255C13.7124 15.384 13.8731 15.4774 14.0494 15.5261C14.2257 15.5749 14.4116 15.5772 14.5891 15.5331L18.0094 14.6784C18.4104 14.5787 18.8288 14.5712 19.2331 14.6565C19.6374 14.7417 20.0171 14.9175 20.3438 15.1706L23.9469 17.9737C25.2422 18.9815 25.3609 20.8956 24.2016 22.0534L22.5859 23.669C21.4297 24.8253 19.7016 25.3331 18.0906 24.7659C13.9667 23.3168 10.2227 20.9561 7.1375 17.8596C4.04121 14.7749 1.68055 11.0315 0.231253 6.90808C-0.334372 5.2987 0.173441 3.56902 1.32969 2.41277L2.94532 0.797141Z" fill="#5696FD"/>
</svg>
